# xmcd
#
# Track frame offsets:
#	150
#	18588
#	46631
#	70459
#
# Disc length: 1236 seconds
#
# Revision: 0
# Processed by: cddbd v1.5.2PL0 Copyright (c) Steve Scherf et al.
# Submitted via: audiograbber 1.83.01
#
DISCID=2d04d204
DTITLE=Shine - By The Light Of Nature
DYEAR=1996
DGENRE=Eurodance
TTITLE0=By The Light Of Nature (Radio Mix)
TTITLE1=By The Light Of Nature (Extended DAT Man Mix)
TTITLE2=By The Light Of Nature (Dream Mix)
TTITLE3=By The Light Of Nature (Urban Mix)
EXTD=
EXTT0=
EXTT1=
EXTT2=
EXTT3=
PLAYORDER=
